<?xml version="1.0" encoding="utf-8"?>
<!-- Generator: Adobe Illustrator 28.0.0, SVG Export Plug-In . SVG Version: 6.00 Build 0)  -->
<svg version="1.1" id="Layer_1" xmlns="http://www.w3.org/2000/svg" xmlns:xlink="http://www.w3.org/1999/xlink" x="0px" y="0px"
	 viewBox="0 0 334.3 61.81" style="enable-background:new 0 0 334.3 61.81;" xml:space="preserve">
<style type="text/css">
	.st0{display:none;stroke:#FFFFFF;stroke-miterlimit:10;}
</style>
<g>
	<g>
		<g>
			<path d="M89.19,50.3c-0.81-1.61-2.13-2.79-3.15-3.23V47c2.79-1.25,5.28-4.25,5.28-7.56c0-6.68-5.72-9.76-11.88-9.76H64.4v5.87
				h14.82l0,0h0.22c3.45,0,5.28,1.39,5.28,4.03c0,2.05-1.61,3.89-5.5,3.96l0,0h-0.07h-0.08H64.4v5.58h12.1
				c3.59,0,5.36,1.1,6.68,3.52l4.25,8.22h7.34L89.19,50.3z"/>
			<path d="M120,44.73L120,44.73c1.98-1.32,2.93-3.52,2.93-5.94c0-4.77-3.67-8.95-10.86-8.95h-15.7v5.87h15.33
				c3.52,0,4.62,1.25,4.62,3.23c0,1.76-0.81,3.37-4.62,3.37H96.37v5.43h15.99c4.03,0,5.28,1.61,5.28,3.74s-1.03,3.67-5.28,3.67
				H96.37v5.87h15.99c7.41,0,11.88-3.52,11.88-9.39C124.26,48.1,122.5,45.53,120,44.73"/>
			<path d="M45.91,29.69L34.17,54.85l-2.93,5.94h6.24L41,53.38h15.04l3.45,7.41h6.08l-14.52-31.1
				C51.05,29.69,45.91,29.69,45.91,29.69z M54.05,48.32H42.98l0.37-0.51l5.14-11.3h0.07l5.14,11.3L54.05,48.32z"/>
			<g>
				<path d="M30.06,55.73c-3.3,3.59-7.78,5.58-13.13,5.58c-11,0-16.73-6.53-16.73-15.85s6.02-16.14,16.73-16.14
					c5.58,0,9.83,1.76,13.06,5.43l-4.47,4.47c-1.98-2.71-4.84-4.18-8.51-4.18c-7.12,0-10.12,4.4-10.12,10.34
					c0,5.72,2.79,9.98,10.05,9.98c3.74,0,6.68-1.47,8.73-4.11L30.06,55.73z"/>
				<path d="M192.11,60.87h-5.5L172.53,43.7l-2.35-3.67h-0.07v20.83h-6.53V29.69h5.5l14.23,17.17l2.2,3.52h0.07V29.69h6.53V60.87
					L192.11,60.87z"/>
				<path d="M204.07,60.87h-6.53V29.69h6.53V60.87z"/>
				<path d="M224.61,61.23c-10.49,0-16.07-6.53-16.07-15.77s5.5-16.14,16.07-16.14s16.07,6.9,16.07,16.14
					C240.67,54.78,234.95,61.23,224.61,61.23z M224.61,35.12c-6.6,0-9.39,4.33-9.39,10.34c0,5.8,2.79,9.98,9.39,9.98
					c6.68,0,9.39-4.11,9.39-9.98C234,39.59,231.36,35.12,224.61,35.12z"/>
				<path d="M143.7,61.31c-10.49,0-16.07-6.53-16.07-15.77s5.5-16.14,16.07-16.14s16.07,6.9,16.07,16.14S154.04,61.31,143.7,61.31z
					 M143.7,35.19c-6.6,0-9.39,4.33-9.39,10.34c0,5.8,2.79,9.98,9.39,9.98c6.68,0,9.39-4.11,9.39-9.98
					C153.09,39.67,150.37,35.19,143.7,35.19z"/>
			</g>
		</g>
	</g>
</g>
<g>
	<path d="M16.64,18.91H0.21v-2.42L10.26,5.05l1.69-1.54l0,0H0.5V0.5h15.99v2.42L6.52,14.36L4.83,15.9l0,0h11.74
		C16.64,15.9,16.64,18.91,16.64,18.91z"/>
	<path d="M53.61,18.91h-4.18l-3.96-5.21l-1.03-1.69l0,0l-1.03,1.76l-3.96,5.21h-4.18l7.19-9.24L35.27,0.5h4.18l4.03,5.28l0.95,1.54
		l0,0l0.95-1.54l4.03-5.28h4.18l-7.02,9.24L53.61,18.91z"/>
	<path d="M70.34,3.43h-6.46v15.63h-3.3V3.43h-6.46V0.42h16.14L70.34,3.43L70.34,3.43z"/>
	<g>
		<path d="M90.29,0.42l-6.97,15.04l-1.47-2.71c-0.51-0.95-1.25-1.69-1.98-1.98l0,0c1.69-0.73,3.3-2.49,3.3-4.55
			c0-3.81-3.23-5.72-6.75-5.72h-5.06v3.01h5.06c2.05,0,3.45,0.73,3.45,2.71c0,1.47-1.17,2.57-3.67,2.57h-4.77v3.01h3.15
			c2.2,0,3.45,0.73,4.25,2.27l2.49,4.91h3.96l2.05-4.47h9.02l2.05,4.47h3.67L93.41,0.49L90.29,0.42L90.29,0.42z M95.13,11.57h-6.68
			l0.22-0.29l3.01-6.75l0,0l3.15,6.75L95.13,11.57z"/>
		<path d="M112.37,8.42c-0.44-0.07-2.57-0.66-3.01-0.73c-3.23-0.81-4.03-1.47-4.03-2.27c0-0.95,1.03-2.2,4.47-2.2
			c2.27,0,3.96,0.81,5.43,2.49l2.42-2.42c-2.05-2.05-4.69-3.15-7.78-3.15c-5.21,0-7.78,2.42-7.78,5.28c0,3.01,2.71,4.25,6.02,5.06
			c0.44,0.07,3.01,0.73,3.45,0.81c2.42,0.66,3.23,1.54,3.23,2.42c0,1.17-1.25,2.42-4.69,2.42c-2.2,0-3.96-0.66-6.16-2.57l-2.42,2.42
			c2.42,2.42,5.65,3.3,8.66,3.3c5.65,0,8-2.71,8-5.5C117.95,11.35,116.19,9.37,112.37,8.42z"/>
	</g>
	<g>
		<rect x="18.62" y="8.12" width="13.94" height="3.01"/>
		<rect x="18.62" y="15.9" width="15.04" height="3.01"/>
		<rect x="18.62" y="0.42" width="15.04" height="3.01"/>
	</g>
	<g>
		<path d="M118.83,2.18c-0.51,0-1.03-0.44-1.03-1.03c0-0.66,0.44-1.03,1.03-1.03c0.51,0,1.03,0.44,1.03,1.03
			C119.71,1.67,119.34,2.18,118.83,2.18z M118.83,0.35c-0.51,0-0.81,0.44-0.81,0.95s0.44,0.95,0.81,0.95s0.81-0.44,0.81-0.95
			C119.63,0.71,119.19,0.35,118.83,0.35z M119.34,1.81L119.34,1.81l-0.15-0.29c-0.07-0.07-0.07-0.22-0.29-0.22h-0.29l0,0v0.44h-0.07
			V0.57h0.51c0.22,0,0.44,0.07,0.44,0.29c0,0.07-0.07,0.22-0.22,0.29c0.07,0.07,0.07,0.07,0.07,0.22L119.34,1.81L119.34,1.81z
			 M118.83,0.71h-0.44l0,0v0.44l0,0h0.44c0.22,0,0.29-0.07,0.29-0.22C119.12,0.79,118.9,0.71,118.83,0.71z"/>
	</g>
</g>
<g>
	<path d="M258.43,39.38c0.08,0,0.15,0.08,0.23,0.15l0.61,0.68c-0.45,0.53-1.06,0.99-1.82,1.29s-1.52,0.45-2.5,0.45
		c-0.83,0-1.59-0.15-2.35-0.45c-0.68-0.3-1.29-0.76-1.82-1.21c-0.53-0.53-0.91-1.21-1.14-1.9c-0.23-0.76-0.45-1.59-0.45-2.5
		s0.15-1.67,0.45-2.5c0.3-0.76,0.68-1.44,1.21-1.9c0.53-0.53,1.14-0.91,1.9-1.21c0.76-0.3,1.52-0.45,2.43-0.45s1.59,0.15,2.27,0.45
		c0.61,0.23,1.21,0.61,1.67,1.14l-0.53,0.76c-0.08,0.08-0.08,0.08-0.15,0.15c-0.08,0.08-0.15,0.08-0.23,0.08s-0.15-0.08-0.23-0.08
		c-0.08-0.08-0.15-0.15-0.3-0.23s-0.23-0.15-0.38-0.23s-0.3-0.15-0.53-0.23s-0.45-0.15-0.76-0.23c-0.23-0.08-0.61-0.08-0.91-0.08
		c-0.61,0-1.21,0.15-1.74,0.3c-0.53,0.23-0.99,0.53-1.36,0.91c-0.38,0.38-0.68,0.91-0.91,1.52c-0.23,0.61-0.3,1.21-0.3,1.97
		s0.08,1.44,0.3,1.97c0.23,0.61,0.53,1.06,0.83,1.52c0.38,0.38,0.83,0.76,1.29,0.91c0.53,0.23,1.06,0.3,1.59,0.3
		c0.3,0,0.68,0,0.91-0.08c0.3-0.08,0.53-0.08,0.76-0.23s0.45-0.23,0.68-0.3c0.23-0.15,0.45-0.3,0.61-0.45
		C258.28,39.45,258.36,39.38,258.43,39.38z"/>
	<path d="M264.57,33.31c0.61,0,1.14,0.08,1.67,0.3c0.53,0.23,0.91,0.53,1.29,0.83c0.3,0.38,0.61,0.83,0.83,1.36
		c0.15,0.53,0.3,1.14,0.3,1.82s-0.08,1.29-0.3,1.82c-0.15,0.53-0.45,0.99-0.83,1.36c-0.3,0.38-0.76,0.68-1.29,0.83
		c-0.53,0.23-1.06,0.3-1.67,0.3c-0.61,0-1.14-0.08-1.67-0.3c-0.53-0.23-0.91-0.53-1.29-0.83s-0.61-0.83-0.83-1.36
		c-0.23-0.53-0.3-1.14-0.3-1.82s0.08-1.21,0.3-1.82c0.23-0.53,0.45-0.99,0.83-1.36c0.3-0.38,0.76-0.68,1.29-0.83
		C263.44,33.39,263.97,33.31,264.57,33.31z M264.57,40.82c0.83,0,1.44-0.3,1.9-0.83s0.61-1.29,0.61-2.35c0-0.99-0.23-1.82-0.61-2.35
		c-0.45-0.53-0.99-0.83-1.9-0.83c-0.45,0-0.76,0.08-1.14,0.23c-0.3,0.15-0.53,0.3-0.76,0.61c-0.23,0.23-0.38,0.61-0.45,0.99
		c-0.08,0.38-0.15,0.83-0.15,1.29s0.08,0.91,0.15,1.29c0.15,0.38,0.23,0.76,0.45,0.99s0.45,0.45,0.76,0.61
		C263.82,40.67,264.2,40.82,264.57,40.82z"/>
	<path d="M270.41,41.8v-8.42h0.91c0.23,0,0.3,0.08,0.38,0.3l0.15,0.83c0.3-0.38,0.61-0.68,0.99-0.91s0.83-0.38,1.29-0.38
		c0.53,0,0.99,0.15,1.36,0.45c0.3,0.3,0.61,0.76,0.76,1.29c0.15-0.3,0.23-0.53,0.45-0.83c0.15-0.23,0.45-0.38,0.61-0.53
		c0.23-0.15,0.53-0.23,0.76-0.3c0.23-0.08,0.53-0.08,0.83-0.08c0.45,0,0.83,0.08,1.21,0.23c0.3,0.15,0.61,0.3,0.91,0.61
		c0.23,0.23,0.45,0.61,0.53,0.99c0.15,0.38,0.15,0.83,0.15,1.36v5.38h-1.52v-5.38c0-0.61-0.15-1.14-0.45-1.52
		c-0.3-0.38-0.76-0.53-1.21-0.53c-0.23,0-0.45,0.08-0.68,0.15c-0.23,0.08-0.45,0.23-0.61,0.38c-0.15,0.15-0.3,0.38-0.38,0.61
		c-0.08,0.23-0.15,0.53-0.15,0.91v5.31h-1.52v-5.38c0-0.68-0.15-1.21-0.45-1.52c-0.23-0.3-0.68-0.53-1.21-0.53
		c-0.38,0-0.76,0.08-0.99,0.3c-0.3,0.23-0.61,0.45-0.83,0.83v6.22h-1.29C270.41,41.65,270.41,41.8,270.41,41.8z"/>
	<path d="M284.06,41.8v-8.42h0.91c0.23,0,0.3,0.08,0.38,0.3l0.15,0.83c0.3-0.38,0.61-0.68,0.99-0.91s0.83-0.38,1.29-0.38
		c0.53,0,0.99,0.15,1.36,0.45c0.3,0.3,0.61,0.76,0.76,1.29c0.15-0.3,0.23-0.53,0.45-0.83c0.15-0.23,0.45-0.38,0.61-0.53
		c0.23-0.15,0.53-0.23,0.76-0.3c0.23-0.08,0.53-0.08,0.83-0.08c0.45,0,0.83,0.08,1.21,0.23s0.61,0.3,0.91,0.61
		c0.23,0.23,0.45,0.61,0.53,0.99c0.15,0.38,0.15,0.83,0.15,1.36v5.38h-1.52v-5.38c0-0.61-0.15-1.14-0.45-1.52
		c-0.3-0.3-0.76-0.53-1.21-0.53c-0.23,0-0.45,0.08-0.68,0.15c-0.23,0.08-0.45,0.23-0.61,0.38c-0.15,0.15-0.3,0.38-0.38,0.61
		c-0.08,0.23-0.15,0.53-0.15,0.91v5.31h-1.52v-5.38c0-0.68-0.15-1.21-0.45-1.52c-0.23-0.3-0.68-0.53-1.21-0.53
		c-0.38,0-0.76,0.08-0.99,0.3c-0.23,0.23-0.61,0.45-0.83,0.83v6.22h-1.29L284.06,41.8L284.06,41.8z"/>
	<path d="M298.92,33.46v5.38c0,0.61,0.15,1.14,0.45,1.52c0.3,0.3,0.76,0.53,1.29,0.53c0.45,0,0.83-0.08,1.21-0.3
		c0.38-0.23,0.76-0.53,1.06-0.83v-6.22h1.52v8.42h-0.91c-0.23,0-0.3-0.08-0.38-0.3l-0.15-0.91c-0.38,0.38-0.76,0.76-1.21,0.99
		s-0.99,0.38-1.59,0.38c-0.45,0-0.83-0.08-1.21-0.23c-0.3-0.15-0.61-0.38-0.91-0.61c-0.23-0.3-0.45-0.61-0.53-0.99
		c-0.15-0.38-0.15-0.83-0.15-1.29v-5.38L298.92,33.46L298.92,33.46z"/>
	<path d="M306.88,41.8v-8.42h0.91c0.23,0,0.3,0.08,0.38,0.3l0.15,0.91c0.38-0.38,0.76-0.76,1.21-0.99s0.99-0.38,1.59-0.38
		c0.45,0,0.83,0.08,1.21,0.23c0.3,0.15,0.61,0.38,0.91,0.61c0.23,0.3,0.45,0.61,0.53,0.99c0.15,0.38,0.15,0.83,0.15,1.29v5.38h-1.52
		v-5.38c0-0.61-0.15-1.14-0.45-1.52c-0.3-0.3-0.76-0.53-1.29-0.53c-0.45,0-0.83,0.08-1.21,0.3s-0.76,0.53-1.06,0.83v6.22h-1.52v0.16
		H306.88z"/>
	<path d="M318.11,30.81c0,0.15-0.08,0.3-0.08,0.38c-0.08,0.15-0.15,0.23-0.23,0.3c-0.08,0.08-0.23,0.15-0.3,0.23
		c-0.15,0.08-0.23,0.08-0.45,0.08c-0.15,0-0.3-0.08-0.38-0.08c-0.08-0.08-0.23-0.15-0.3-0.23c-0.08-0.08-0.15-0.23-0.23-0.3
		c-0.08-0.15-0.08-0.23-0.08-0.38s0.08-0.3,0.08-0.45s0.15-0.23,0.23-0.3c0.08-0.08,0.23-0.15,0.3-0.23
		c0.08-0.08,0.23-0.08,0.38-0.08s0.3,0.08,0.45,0.08c0.15,0.08,0.23,0.15,0.3,0.23c0.08,0.08,0.15,0.23,0.23,0.3
		C318.03,30.5,318.11,30.66,318.11,30.81z M317.8,33.46v8.42h-1.52v-8.42H317.8L317.8,33.46z"/>
	<path d="M322.88,42.03c-0.68,0-1.21-0.15-1.52-0.53c-0.3-0.38-0.53-0.91-0.53-1.59v-5.16h-0.99c-0.08,0-0.15-0.08-0.23-0.08
		c-0.08-0.08-0.08-0.15-0.08-0.23v-0.68l1.36-0.15l0.3-2.58c0-0.08,0.08-0.15,0.15-0.23s0.15-0.08,0.23-0.08h0.76v2.88h2.43v1.06
		h-2.43v5.08c0,0.3,0.08,0.61,0.23,0.83c0.15,0.15,0.38,0.23,0.68,0.23c0.15,0,0.3,0,0.38-0.08c0.08-0.08,0.23-0.08,0.3-0.15
		c0.08-0.08,0.15-0.08,0.23-0.15c0.08-0.08,0.15-0.08,0.15-0.08c0.08,0,0.15,0.08,0.23,0.15l0.45,0.76
		c-0.23,0.23-0.53,0.45-0.91,0.53C323.64,41.95,323.26,42.03,322.88,42.03z"/>
	<path d="M329.03,44.31c-0.08,0.15-0.15,0.23-0.15,0.23c-0.08,0.08-0.15,0.08-0.3,0.08h-1.14l1.52-3.34l-3.49-7.89h1.29
		c0.15,0,0.23,0.08,0.3,0.08c0.08,0.08,0.15,0.15,0.15,0.23l2.27,5.31c0.08,0.15,0.08,0.23,0.15,0.38c0.08,0.15,0.08,0.23,0.08,0.38
		c0.08-0.15,0.08-0.23,0.15-0.38c0.08-0.15,0.08-0.23,0.15-0.38l2.2-5.31c0.08-0.08,0.08-0.15,0.15-0.23
		c0.08-0.08,0.15-0.08,0.23-0.08h1.21L329.03,44.31z"/>
</g>
<g>
	<path d="M258.55,48.82v1.29h-5.69v3.94h4.63v1.29h-4.63v4.02h5.69v1.29h-7.28V48.82H258.55L258.55,48.82z"/>
	<path d="M266.58,60.65c-0.23,0-0.3-0.08-0.38-0.3l-0.15-0.99c-0.3,0.45-0.76,0.76-1.21,1.06c-0.45,0.23-0.99,0.38-1.59,0.38
		c-0.45,0-0.91-0.08-1.29-0.3c-0.38-0.15-0.76-0.45-0.99-0.83c-0.3-0.3-0.53-0.83-0.61-1.36c-0.15-0.53-0.23-1.14-0.23-1.82
		c0-0.61,0.08-1.21,0.23-1.74c0.15-0.53,0.45-0.99,0.76-1.44c0.3-0.38,0.68-0.68,1.14-0.91s0.91-0.3,1.52-0.3
		c0.53,0,0.91,0.08,1.29,0.23s0.68,0.45,0.99,0.76v-4.7h1.51v12.28L266.58,60.65L266.58,60.65z M263.7,59.58
		c0.45,0,0.91-0.15,1.29-0.3c0.38-0.23,0.68-0.53,0.99-0.91v-4.02c-0.23-0.38-0.53-0.61-0.91-0.76c-0.3-0.15-0.68-0.23-1.06-0.23
		c-0.76,0-1.44,0.3-1.82,0.83s-0.61,1.36-0.61,2.35c0,0.53,0.08,0.99,0.15,1.44c0.08,0.38,0.23,0.76,0.45,0.99
		c0.15,0.23,0.45,0.45,0.68,0.53C263.02,59.58,263.4,59.58,263.7,59.58z"/>
	<path d="M271.89,49.65c0,0.15-0.08,0.3-0.08,0.38c-0.08,0.15-0.15,0.23-0.23,0.3c-0.08,0.08-0.23,0.15-0.3,0.23
		c-0.15,0.08-0.23,0.08-0.45,0.08c-0.15,0-0.3-0.08-0.38-0.08c-0.08-0.08-0.23-0.15-0.3-0.23c-0.08-0.08-0.15-0.23-0.23-0.3
		c-0.08-0.15-0.08-0.23-0.08-0.38c0-0.15,0.08-0.3,0.08-0.45s0.15-0.23,0.23-0.3c0.08-0.08,0.23-0.15,0.3-0.23
		c0.15-0.08,0.23-0.08,0.38-0.08s0.3,0.08,0.45,0.08c0.15,0.08,0.23,0.15,0.3,0.23c0.08,0.08,0.15,0.23,0.23,0.3
		C271.89,49.35,271.89,49.5,271.89,49.65z M271.59,52.31v8.42h-1.52v-8.42H271.59L271.59,52.31z"/>
	<path d="M276.74,60.87c-0.68,0-1.21-0.15-1.52-0.53c-0.3-0.38-0.53-0.91-0.53-1.59v-5.16h-0.99c-0.08,0-0.15-0.08-0.23-0.08
		c-0.08-0.08-0.08-0.15-0.08-0.23V52.6l1.36-0.15l0.3-2.58c0-0.08,0.08-0.15,0.15-0.23c0.08-0.08,0.15-0.08,0.23-0.08h0.76v2.88
		h2.43v1.06h-2.43v5.08c0,0.3,0.08,0.61,0.23,0.83c0.15,0.15,0.38,0.23,0.68,0.23c0.15,0,0.3,0,0.38-0.08
		c0.08-0.08,0.23-0.08,0.3-0.15c0.08-0.08,0.15-0.08,0.23-0.15c0.08-0.08,0.15-0.08,0.15-0.08c0.08,0,0.15,0.08,0.23,0.15l0.45,0.76
		c-0.23,0.23-0.53,0.45-0.91,0.53C277.43,60.8,277.12,60.87,276.74,60.87z"/>
	<path d="M282.36,49.65c0,0.15-0.08,0.3-0.08,0.38c-0.08,0.15-0.15,0.23-0.23,0.3c-0.08,0.08-0.23,0.15-0.3,0.23
		c-0.15,0.08-0.23,0.08-0.45,0.08c-0.15,0-0.3-0.08-0.38-0.08c-0.08-0.08-0.23-0.15-0.3-0.23c-0.08-0.08-0.15-0.23-0.23-0.3
		c-0.08-0.15-0.08-0.23-0.08-0.38c0-0.15,0.08-0.3,0.08-0.45s0.15-0.23,0.23-0.3c0.08-0.08,0.23-0.15,0.3-0.23
		c0.08-0.08,0.23-0.08,0.38-0.08s0.3,0.08,0.45,0.08c0.15,0.08,0.23,0.15,0.3,0.23c0.08,0.08,0.15,0.23,0.23,0.3
		S282.36,49.5,282.36,49.65z M281.98,52.31v8.42h-1.52v-8.42H281.98L281.98,52.31z"/>
	<path d="M287.97,52.15c0.61,0,1.14,0.08,1.67,0.3c0.53,0.23,0.91,0.53,1.29,0.83c0.3,0.38,0.61,0.83,0.83,1.36
		c0.15,0.53,0.3,1.14,0.3,1.82s-0.08,1.29-0.3,1.82c-0.15,0.53-0.45,0.99-0.83,1.36c-0.3,0.38-0.76,0.68-1.29,0.83
		c-0.53,0.23-1.06,0.3-1.67,0.3s-1.14-0.08-1.67-0.3c-0.53-0.23-0.91-0.53-1.29-0.83s-0.61-0.83-0.83-1.36s-0.3-1.14-0.3-1.82
		s0.08-1.21,0.3-1.82c0.23-0.53,0.45-0.99,0.83-1.36c0.3-0.38,0.76-0.68,1.29-0.83C286.83,52.23,287.44,52.15,287.97,52.15z
		 M287.97,59.66c0.83,0,1.44-0.3,1.9-0.83s0.61-1.29,0.61-2.35c0-0.99-0.23-1.82-0.61-2.35c-0.45-0.53-0.99-0.83-1.9-0.83
		c-0.45,0-0.76,0.08-1.14,0.23c-0.3,0.15-0.53,0.3-0.76,0.61c-0.23,0.23-0.38,0.61-0.45,0.99c-0.08,0.38-0.15,0.83-0.15,1.29
		s0.08,0.91,0.15,1.29c0.15,0.38,0.23,0.76,0.45,0.99c0.23,0.23,0.45,0.45,0.76,0.61C287.21,59.51,287.59,59.66,287.97,59.66z"/>
	<path d="M293.8,60.65v-8.42h0.91c0.23,0,0.3,0.08,0.38,0.3l0.15,0.91c0.38-0.38,0.76-0.76,1.21-0.99s0.99-0.38,1.59-0.38
		c0.45,0,0.83,0.08,1.21,0.23c0.3,0.15,0.61,0.38,0.91,0.61c0.23,0.3,0.45,0.61,0.53,0.99c0.15,0.38,0.15,0.83,0.15,1.29v5.38h-1.52
		v-5.38c0-0.61-0.15-1.14-0.45-1.52c-0.3-0.3-0.76-0.53-1.29-0.53c-0.45,0-0.83,0.08-1.21,0.3s-0.76,0.53-1.06,0.83v6.22h-1.52
		L293.8,60.65L293.8,60.65z"/>
</g>
<rect x="71.07" y="-35.34" class="st0" width="190" height="144"/>
<rect x="1.07" y="-51.34" class="st0" width="330" height="192"/>
</svg>
