<?xml version="1.0" encoding="utf-8"?>
<!-- Generator: Adobe Illustrator 28.0.0, SVG Export Plug-In . SVG Version: 6.00 Build 0)  -->
<svg version="1.1" id="Layer_1" xmlns="http://www.w3.org/2000/svg" xmlns:xlink="http://www.w3.org/1999/xlink" x="0px" y="0px"
	 viewBox="0 0 351 164" style="enable-background:new 0 0 351 164;" xml:space="preserve">
<style type="text/css">
	.st0{fill:#FFFFFF;}
	.st1{display:none;stroke:#FFFFFF;stroke-miterlimit:10;}
</style>
<g>
	<g>
		<g>
			<path class="st0" d="M98.62,96.64c-0.81-1.61-2.13-2.79-3.15-3.23v-0.07c2.79-1.25,5.28-4.25,5.28-7.56
				c0-6.68-5.72-9.76-11.88-9.76H73.83v5.87h14.82l0,0h0.22c3.45,0,5.28,1.39,5.28,4.03c0,2.05-1.61,3.89-5.5,3.96l0,0h-0.07H88.5
				H73.83v5.58h12.1c3.59,0,5.36,1.1,6.68,3.52l4.25,8.22h7.34L98.62,96.64z"/>
			<path class="st0" d="M129.43,91.07L129.43,91.07c1.98-1.32,2.93-3.52,2.93-5.94c0-4.77-3.67-8.95-10.86-8.95h-15.7v5.87h15.33
				c3.52,0,4.62,1.25,4.62,3.23c0,1.76-0.81,3.37-4.62,3.37h-15.33v5.43h15.99c4.03,0,5.28,1.61,5.28,3.74
				c0,2.13-1.03,3.67-5.28,3.67h-15.99v5.87h15.99c7.41,0,11.88-3.52,11.88-9.39C133.69,94.44,131.93,91.87,129.43,91.07"/>
			<path class="st0" d="M55.34,76.03L43.6,101.19l-2.93,5.94h6.24l3.52-7.41h15.04l3.45,7.41H75l-14.52-31.1H55.34z M63.48,94.66
				H52.41l0.37-0.51l5.14-11.3h0.07l5.14,11.3L63.48,94.66z"/>
			<g>
				<path class="st0" d="M39.49,102.07c-3.3,3.59-7.78,5.58-13.13,5.58c-11,0-16.73-6.53-16.73-15.85s6.02-16.14,16.73-16.14
					c5.58,0,9.83,1.76,13.06,5.43l-4.47,4.47c-1.98-2.71-4.84-4.18-8.51-4.18c-7.12,0-10.12,4.4-10.12,10.34
					c0,5.72,2.79,9.98,10.05,9.98c3.74,0,6.68-1.47,8.73-4.11L39.49,102.07z"/>
				<path class="st0" d="M201.54,107.21h-5.5l-14.08-17.17l-2.35-3.67h-0.07v20.83h-6.53V76.03h5.5l14.23,17.17l2.2,3.52h0.07V76.03
					h6.53V107.21L201.54,107.21z"/>
				<path class="st0" d="M213.5,107.21h-6.53V76.03h6.53V107.21z"/>
				<path class="st0" d="M234.04,107.57c-10.49,0-16.07-6.53-16.07-15.77s5.5-16.14,16.07-16.14s16.07,6.9,16.07,16.14
					C250.1,101.12,244.38,107.57,234.04,107.57z M234.04,81.46c-6.6,0-9.39,4.33-9.39,10.34c0,5.8,2.79,9.98,9.39,9.98
					c6.68,0,9.39-4.11,9.39-9.98C243.43,85.93,240.79,81.46,234.04,81.46z"/>
				<path class="st0" d="M153.13,107.65c-10.49,0-16.07-6.53-16.07-15.77s5.5-16.14,16.07-16.14s16.07,6.9,16.07,16.14
					S163.47,107.65,153.13,107.65z M153.13,81.53c-6.6,0-9.39,4.33-9.39,10.34c0,5.8,2.79,9.98,9.39,9.98
					c6.68,0,9.39-4.11,9.39-9.98C162.52,86.01,159.8,81.53,153.13,81.53z"/>
			</g>
		</g>
	</g>
</g>
<g>
	<path class="st0" d="M26.07,65.25H9.64v-2.42l10.05-11.44l1.69-1.54l0,0H9.93v-3.01h15.99v2.42L15.95,60.7l-1.69,1.54l0,0H26
		C26.07,62.24,26.07,65.25,26.07,65.25z"/>
	<path class="st0" d="M63.04,65.25h-4.18l-3.96-5.21l-1.03-1.69l0,0l-1.03,1.76l-3.96,5.21H44.7l7.19-9.24l-7.19-9.24h4.18
		l4.03,5.28l0.95,1.54l0,0l0.95-1.54l4.03-5.28h4.18L56,56.08L63.04,65.25z"/>
	<path class="st0" d="M79.77,49.77h-6.46v15.63h-3.3V49.77h-6.46v-3.01h16.14L79.77,49.77L79.77,49.77z"/>
	<g>
		<path class="st0" d="M99.72,46.76L92.75,61.8l-1.47-2.71c-0.51-0.95-1.25-1.69-1.98-1.98l0,0c1.69-0.73,3.3-2.49,3.3-4.55
			c0-3.81-3.23-5.72-6.75-5.72h-5.06v3.01h5.06c2.05,0,3.45,0.73,3.45,2.71c0,1.47-1.17,2.57-3.67,2.57h-4.77v3.01h3.15
			c2.2,0,3.45,0.73,4.25,2.27l2.49,4.91h3.96l2.05-4.47h9.02l2.05,4.47h3.67l-8.66-18.49L99.72,46.76L99.72,46.76z M104.56,57.91
			h-6.68l0.22-0.29l3.01-6.75l0,0l3.15,6.75L104.56,57.91z"/>
		<path class="st0" d="M121.8,54.76c-0.44-0.07-2.57-0.66-3.01-0.73c-3.23-0.81-4.03-1.47-4.03-2.27c0-0.95,1.03-2.2,4.47-2.2
			c2.27,0,3.96,0.81,5.43,2.49l2.42-2.42c-2.05-2.05-4.69-3.15-7.78-3.15c-5.21,0-7.78,2.42-7.78,5.28c0,3.01,2.71,4.25,6.02,5.06
			c0.44,0.07,3.01,0.73,3.45,0.81c2.42,0.66,3.23,1.54,3.23,2.42c0,1.17-1.25,2.42-4.69,2.42c-2.2,0-3.96-0.66-6.16-2.57l-2.42,2.42
			c2.42,2.42,5.65,3.3,8.66,3.3c5.65,0,8-2.71,8-5.5C127.38,57.69,125.62,55.71,121.8,54.76z"/>
	</g>
	<g>
		<rect x="28.05" y="54.46" class="st0" width="13.94" height="3.01"/>
		<rect x="28.05" y="62.24" class="st0" width="15.04" height="3.01"/>
		<rect x="28.05" y="46.76" class="st0" width="15.04" height="3.01"/>
	</g>
	<g>
		<path class="st0" d="M128.26,48.52c-0.51,0-1.03-0.44-1.03-1.03c0-0.66,0.44-1.03,1.03-1.03c0.51,0,1.03,0.44,1.03,1.03
			C129.14,48.01,128.77,48.52,128.26,48.52z M128.26,46.69c-0.51,0-0.81,0.44-0.81,0.95s0.44,0.95,0.81,0.95s0.81-0.44,0.81-0.95
			C129.06,47.05,128.62,46.69,128.26,46.69z M128.77,48.15L128.77,48.15l-0.15-0.29c-0.07-0.07-0.07-0.22-0.29-0.22h-0.29l0,0v0.44
			h-0.07v-1.17h0.51c0.22,0,0.44,0.07,0.44,0.29c0,0.07-0.07,0.22-0.22,0.29c0.07,0.07,0.07,0.07,0.07,0.22V48.15z M128.26,47.05
			h-0.44l0,0v0.44l0,0h0.44c0.22,0,0.29-0.07,0.29-0.22C128.55,47.13,128.33,47.05,128.26,47.05z"/>
	</g>
</g>
<g>
	<path class="st0" d="M267.86,85.72c0.08,0,0.15,0.08,0.23,0.15l0.61,0.68c-0.45,0.53-1.06,0.99-1.82,1.29
		c-0.76,0.3-1.52,0.45-2.5,0.45c-0.83,0-1.59-0.15-2.35-0.45c-0.68-0.3-1.29-0.76-1.82-1.21c-0.53-0.53-0.91-1.21-1.14-1.9
		c-0.23-0.76-0.45-1.59-0.45-2.5c0-0.91,0.15-1.67,0.45-2.5c0.3-0.76,0.68-1.44,1.21-1.9c0.53-0.53,1.14-0.91,1.9-1.21
		c0.76-0.3,1.52-0.45,2.43-0.45s1.59,0.15,2.27,0.45c0.61,0.23,1.21,0.61,1.67,1.14l-0.53,0.76c-0.08,0.08-0.08,0.08-0.15,0.15
		c-0.08,0.08-0.15,0.08-0.23,0.08s-0.15-0.08-0.23-0.08c-0.08-0.08-0.15-0.15-0.3-0.23c-0.15-0.08-0.23-0.15-0.38-0.23
		c-0.15-0.08-0.3-0.15-0.53-0.23c-0.23-0.08-0.45-0.15-0.76-0.23c-0.23-0.08-0.61-0.08-0.91-0.08c-0.61,0-1.21,0.15-1.74,0.3
		c-0.53,0.23-0.99,0.53-1.36,0.91c-0.38,0.38-0.68,0.91-0.91,1.52c-0.23,0.61-0.3,1.21-0.3,1.97s0.08,1.44,0.3,1.97
		c0.23,0.61,0.53,1.06,0.83,1.52c0.38,0.38,0.83,0.76,1.29,0.91c0.53,0.23,1.06,0.3,1.59,0.3c0.3,0,0.68,0,0.91-0.08
		c0.3-0.08,0.53-0.08,0.76-0.23s0.45-0.23,0.68-0.3c0.23-0.15,0.45-0.3,0.61-0.45C267.71,85.79,267.79,85.72,267.86,85.72z"/>
	<path class="st0" d="M274,79.65c0.61,0,1.14,0.08,1.67,0.3c0.53,0.23,0.91,0.53,1.29,0.83c0.3,0.38,0.61,0.83,0.83,1.36
		c0.15,0.53,0.3,1.14,0.3,1.82s-0.08,1.29-0.3,1.82c-0.15,0.53-0.45,0.99-0.83,1.36c-0.3,0.38-0.76,0.68-1.29,0.83
		c-0.53,0.23-1.06,0.3-1.67,0.3c-0.61,0-1.14-0.08-1.67-0.3c-0.53-0.23-0.91-0.53-1.29-0.83c-0.38-0.3-0.61-0.83-0.83-1.36
		c-0.23-0.53-0.3-1.14-0.3-1.82s0.08-1.21,0.3-1.82c0.23-0.53,0.45-0.99,0.83-1.36c0.3-0.38,0.76-0.68,1.29-0.83
		C272.87,79.73,273.4,79.65,274,79.65z M274,87.16c0.83,0,1.44-0.3,1.9-0.83s0.61-1.29,0.61-2.35c0-0.99-0.23-1.82-0.61-2.35
		c-0.45-0.53-0.99-0.83-1.9-0.83c-0.45,0-0.76,0.08-1.14,0.23c-0.3,0.15-0.53,0.3-0.76,0.61c-0.23,0.23-0.38,0.61-0.45,0.99
		c-0.08,0.38-0.15,0.83-0.15,1.29s0.08,0.91,0.15,1.29c0.15,0.38,0.23,0.76,0.45,0.99s0.45,0.45,0.76,0.61
		C273.25,87.01,273.63,87.16,274,87.16z"/>
	<path class="st0" d="M279.84,88.14v-8.42h0.91c0.23,0,0.3,0.08,0.38,0.3l0.15,0.83c0.3-0.38,0.61-0.68,0.99-0.91
		c0.38-0.23,0.83-0.38,1.29-0.38c0.53,0,0.99,0.15,1.36,0.45c0.3,0.3,0.61,0.76,0.76,1.29c0.15-0.3,0.23-0.53,0.45-0.83
		c0.15-0.23,0.45-0.38,0.61-0.53c0.23-0.15,0.53-0.23,0.76-0.3c0.23-0.08,0.53-0.08,0.83-0.08c0.45,0,0.83,0.08,1.21,0.23
		c0.3,0.15,0.61,0.3,0.91,0.61c0.23,0.23,0.45,0.61,0.53,0.99c0.15,0.38,0.15,0.83,0.15,1.36v5.38h-1.52v-5.38
		c0-0.61-0.15-1.14-0.45-1.52c-0.3-0.38-0.76-0.53-1.21-0.53c-0.23,0-0.45,0.08-0.68,0.15c-0.23,0.08-0.45,0.23-0.61,0.38
		c-0.15,0.15-0.3,0.38-0.38,0.61c-0.08,0.23-0.15,0.53-0.15,0.91v5.31h-1.52v-5.38c0-0.68-0.15-1.21-0.45-1.52
		c-0.23-0.3-0.68-0.53-1.21-0.53c-0.38,0-0.76,0.08-0.99,0.3c-0.3,0.23-0.61,0.45-0.83,0.83v6.22h-1.29
		C279.84,87.99,279.84,88.14,279.84,88.14z"/>
	<path class="st0" d="M293.49,88.14v-8.42h0.91c0.23,0,0.3,0.08,0.38,0.3l0.15,0.83c0.3-0.38,0.61-0.68,0.99-0.91
		c0.38-0.23,0.83-0.38,1.29-0.38c0.53,0,0.99,0.15,1.36,0.45c0.3,0.3,0.61,0.76,0.76,1.29c0.15-0.3,0.23-0.53,0.45-0.83
		c0.15-0.23,0.45-0.38,0.61-0.53c0.23-0.15,0.53-0.23,0.76-0.3c0.23-0.08,0.53-0.08,0.83-0.08c0.45,0,0.83,0.08,1.21,0.23
		s0.61,0.3,0.91,0.61c0.23,0.23,0.45,0.61,0.53,0.99c0.15,0.38,0.15,0.83,0.15,1.36v5.38h-1.52v-5.38c0-0.61-0.15-1.14-0.45-1.52
		c-0.3-0.3-0.76-0.53-1.21-0.53c-0.23,0-0.45,0.08-0.68,0.15c-0.23,0.08-0.45,0.23-0.61,0.38c-0.15,0.15-0.3,0.38-0.38,0.61
		c-0.08,0.23-0.15,0.53-0.15,0.91v5.31h-1.52v-5.38c0-0.68-0.15-1.21-0.45-1.52c-0.23-0.3-0.68-0.53-1.21-0.53
		c-0.38,0-0.76,0.08-0.99,0.3c-0.23,0.23-0.61,0.45-0.83,0.83v6.22h-1.29V88.14L293.49,88.14z"/>
	<path class="st0" d="M308.35,79.8v5.38c0,0.61,0.15,1.14,0.45,1.52c0.3,0.3,0.76,0.53,1.29,0.53c0.45,0,0.83-0.08,1.21-0.3
		c0.38-0.23,0.76-0.53,1.06-0.83v-6.22h1.52v8.42h-0.91c-0.23,0-0.3-0.08-0.38-0.3l-0.15-0.91c-0.38,0.38-0.76,0.76-1.21,0.99
		s-0.99,0.38-1.59,0.38c-0.45,0-0.83-0.08-1.21-0.23c-0.3-0.15-0.61-0.38-0.91-0.61c-0.23-0.3-0.45-0.61-0.53-0.99
		c-0.15-0.38-0.15-0.83-0.15-1.29v-5.38L308.35,79.8L308.35,79.8z"/>
	<path class="st0" d="M316.31,88.14v-8.42h0.91c0.23,0,0.3,0.08,0.38,0.3l0.15,0.91c0.38-0.38,0.76-0.76,1.21-0.99
		s0.99-0.38,1.59-0.38c0.45,0,0.83,0.08,1.21,0.23c0.3,0.15,0.61,0.38,0.91,0.61c0.23,0.3,0.45,0.61,0.53,0.99
		c0.15,0.38,0.15,0.83,0.15,1.29v5.38h-1.52v-5.38c0-0.61-0.15-1.14-0.45-1.52c-0.3-0.3-0.76-0.53-1.29-0.53
		c-0.45,0-0.83,0.08-1.21,0.3s-0.76,0.53-1.06,0.83v6.22h-1.52V88.14z"/>
	<path class="st0" d="M327.54,77.15c0,0.15-0.08,0.3-0.08,0.38c-0.08,0.15-0.15,0.23-0.23,0.3c-0.08,0.08-0.23,0.15-0.3,0.23
		c-0.15,0.08-0.23,0.08-0.45,0.08c-0.15,0-0.3-0.08-0.38-0.08c-0.08-0.08-0.23-0.15-0.3-0.23c-0.08-0.08-0.15-0.23-0.23-0.3
		c-0.08-0.15-0.08-0.23-0.08-0.38s0.08-0.3,0.08-0.45s0.15-0.23,0.23-0.3c0.08-0.08,0.23-0.15,0.3-0.23
		c0.08-0.08,0.23-0.08,0.38-0.08c0.15,0,0.3,0.08,0.45,0.08c0.15,0.08,0.23,0.15,0.3,0.23c0.08,0.08,0.15,0.23,0.23,0.3
		C327.46,76.84,327.54,77,327.54,77.15z M327.23,79.8v8.42h-1.52V79.8H327.23L327.23,79.8z"/>
	<path class="st0" d="M332.31,88.37c-0.68,0-1.21-0.15-1.52-0.53c-0.3-0.38-0.53-0.91-0.53-1.59v-5.16h-0.99
		c-0.08,0-0.15-0.08-0.23-0.08c-0.08-0.08-0.08-0.15-0.08-0.23v-0.68l1.36-0.15l0.3-2.58c0-0.08,0.08-0.15,0.15-0.23
		s0.15-0.08,0.23-0.08h0.76v2.88h2.43v1.06h-2.43v5.08c0,0.3,0.08,0.61,0.23,0.83c0.15,0.15,0.38,0.23,0.68,0.23
		c0.15,0,0.3,0,0.38-0.08c0.08-0.08,0.23-0.08,0.3-0.15c0.08-0.08,0.15-0.08,0.23-0.15c0.08-0.08,0.15-0.08,0.15-0.08
		c0.08,0,0.15,0.08,0.23,0.15l0.45,0.76c-0.23,0.23-0.53,0.45-0.91,0.53C333.07,88.29,332.69,88.37,332.31,88.37z"/>
	<path class="st0" d="M338.46,90.65c-0.08,0.15-0.15,0.23-0.15,0.23c-0.08,0.08-0.15,0.08-0.3,0.08h-1.14l1.52-3.34l-3.49-7.89h1.29
		c0.15,0,0.23,0.08,0.3,0.08c0.08,0.08,0.15,0.15,0.15,0.23l2.27,5.31c0.08,0.15,0.08,0.23,0.15,0.38c0.08,0.15,0.08,0.23,0.08,0.38
		c0.08-0.15,0.08-0.23,0.15-0.38c0.08-0.15,0.08-0.23,0.15-0.38l2.2-5.31c0.08-0.08,0.08-0.15,0.15-0.23
		c0.08-0.08,0.15-0.08,0.23-0.08h1.21L338.46,90.65z"/>
</g>
<g>
	<path class="st0" d="M267.98,95.16v1.29h-5.69v3.94h4.63v1.29h-4.63v4.02h5.69v1.29h-7.28V95.16H267.98L267.98,95.16z"/>
	<path class="st0" d="M276.01,106.99c-0.23,0-0.3-0.08-0.38-0.3l-0.15-0.99c-0.3,0.45-0.76,0.76-1.21,1.06
		c-0.45,0.23-0.99,0.38-1.59,0.38c-0.45,0-0.91-0.08-1.29-0.3c-0.38-0.15-0.76-0.45-0.99-0.83c-0.3-0.3-0.53-0.83-0.61-1.36
		c-0.15-0.53-0.23-1.14-0.23-1.82c0-0.61,0.08-1.21,0.23-1.74c0.15-0.53,0.45-0.99,0.76-1.44c0.3-0.38,0.68-0.68,1.14-0.91
		s0.91-0.3,1.52-0.3c0.53,0,0.91,0.08,1.29,0.23c0.38,0.15,0.68,0.45,0.99,0.76v-4.7H277v12.28L276.01,106.99L276.01,106.99z
		 M273.13,105.92c0.45,0,0.91-0.15,1.29-0.3c0.38-0.23,0.68-0.53,0.99-0.91v-4.02c-0.23-0.38-0.53-0.61-0.91-0.76
		c-0.3-0.15-0.68-0.23-1.06-0.23c-0.76,0-1.44,0.3-1.82,0.83c-0.38,0.53-0.61,1.36-0.61,2.35c0,0.53,0.08,0.99,0.15,1.44
		c0.08,0.38,0.23,0.76,0.45,0.99c0.15,0.23,0.45,0.45,0.68,0.53C272.45,105.92,272.83,105.92,273.13,105.92z"/>
	<path class="st0" d="M281.32,95.99c0,0.15-0.08,0.3-0.08,0.38c-0.08,0.15-0.15,0.23-0.23,0.3c-0.08,0.08-0.23,0.15-0.3,0.23
		c-0.15,0.08-0.23,0.08-0.45,0.08c-0.15,0-0.3-0.08-0.38-0.08c-0.08-0.08-0.23-0.15-0.3-0.23c-0.08-0.08-0.15-0.23-0.23-0.3
		c-0.08-0.15-0.08-0.23-0.08-0.38c0-0.15,0.08-0.3,0.08-0.45s0.15-0.23,0.23-0.3c0.08-0.08,0.23-0.15,0.3-0.23
		c0.15-0.08,0.23-0.08,0.38-0.08c0.15,0,0.3,0.08,0.45,0.08c0.15,0.08,0.23,0.15,0.3,0.23c0.08,0.08,0.15,0.23,0.23,0.3
		C281.32,95.69,281.32,95.84,281.32,95.99z M281.02,98.65v8.42h-1.52v-8.42H281.02L281.02,98.65z"/>
	<path class="st0" d="M286.17,107.21c-0.68,0-1.21-0.15-1.52-0.53c-0.3-0.38-0.53-0.91-0.53-1.59v-5.16h-0.99
		c-0.08,0-0.15-0.08-0.23-0.08c-0.08-0.08-0.08-0.15-0.08-0.23v-0.68l1.36-0.15l0.3-2.58c0-0.08,0.08-0.15,0.15-0.23
		c0.08-0.08,0.15-0.08,0.23-0.08h0.76v2.88h2.43v1.06h-2.43v5.08c0,0.3,0.08,0.61,0.23,0.83c0.15,0.15,0.38,0.23,0.68,0.23
		c0.15,0,0.3,0,0.38-0.08c0.08-0.08,0.23-0.08,0.3-0.15c0.08-0.08,0.15-0.08,0.23-0.15c0.08-0.08,0.15-0.08,0.15-0.08
		c0.08,0,0.15,0.08,0.23,0.15l0.45,0.76c-0.23,0.23-0.53,0.45-0.91,0.53C286.86,107.14,286.55,107.21,286.17,107.21z"/>
	<path class="st0" d="M291.79,95.99c0,0.15-0.08,0.3-0.08,0.38c-0.08,0.15-0.15,0.23-0.23,0.3c-0.08,0.08-0.23,0.15-0.3,0.23
		c-0.15,0.08-0.23,0.08-0.45,0.08c-0.15,0-0.3-0.08-0.38-0.08c-0.08-0.08-0.23-0.15-0.3-0.23c-0.08-0.08-0.15-0.23-0.23-0.3
		c-0.08-0.15-0.08-0.23-0.08-0.38c0-0.15,0.08-0.3,0.08-0.45s0.15-0.23,0.23-0.3c0.08-0.08,0.23-0.15,0.3-0.23
		c0.08-0.08,0.23-0.08,0.38-0.08c0.15,0,0.3,0.08,0.45,0.08c0.15,0.08,0.23,0.15,0.3,0.23c0.08,0.08,0.15,0.23,0.23,0.3
		S291.79,95.84,291.79,95.99z M291.41,98.65v8.42h-1.52v-8.42H291.41L291.41,98.65z"/>
	<path class="st0" d="M297.4,98.49c0.61,0,1.14,0.08,1.67,0.3c0.53,0.23,0.91,0.53,1.29,0.83c0.3,0.38,0.61,0.83,0.83,1.36
		c0.15,0.53,0.3,1.14,0.3,1.82s-0.08,1.29-0.3,1.82c-0.15,0.53-0.45,0.99-0.83,1.36c-0.3,0.38-0.76,0.68-1.29,0.83
		c-0.53,0.23-1.06,0.3-1.67,0.3s-1.14-0.08-1.67-0.3c-0.53-0.23-0.91-0.53-1.29-0.83c-0.38-0.3-0.61-0.83-0.83-1.36
		s-0.3-1.14-0.3-1.82s0.08-1.21,0.3-1.82c0.23-0.53,0.45-0.99,0.83-1.36c0.3-0.38,0.76-0.68,1.29-0.83
		C296.26,98.57,296.87,98.49,297.4,98.49z M297.4,106c0.83,0,1.44-0.3,1.9-0.83s0.61-1.29,0.61-2.35c0-0.99-0.23-1.82-0.61-2.35
		c-0.45-0.53-0.99-0.83-1.9-0.83c-0.45,0-0.76,0.08-1.14,0.23c-0.3,0.15-0.53,0.3-0.76,0.61c-0.23,0.23-0.38,0.61-0.45,0.99
		c-0.08,0.38-0.15,0.83-0.15,1.29s0.08,0.91,0.15,1.29c0.15,0.38,0.23,0.76,0.45,0.99c0.23,0.23,0.45,0.45,0.76,0.61
		C296.64,105.85,297.02,106,297.4,106z"/>
	<path class="st0" d="M303.23,106.99v-8.42h0.91c0.23,0,0.3,0.08,0.38,0.3l0.15,0.91c0.38-0.38,0.76-0.76,1.21-0.99
		s0.99-0.38,1.59-0.38c0.45,0,0.83,0.08,1.21,0.23c0.3,0.15,0.61,0.38,0.91,0.61c0.23,0.3,0.45,0.61,0.53,0.99
		c0.15,0.38,0.15,0.83,0.15,1.29v5.38h-1.52v-5.38c0-0.61-0.15-1.14-0.45-1.52c-0.3-0.3-0.76-0.53-1.29-0.53
		c-0.45,0-0.83,0.08-1.21,0.3s-0.76,0.53-1.06,0.83v6.22h-1.52L303.23,106.99L303.23,106.99z"/>
</g>
<rect x="80.5" y="11" class="st1" width="190" height="144"/>
<rect x="10.5" y="-5" class="st1" width="330" height="192"/>
</svg>
