<?xml version="1.0" encoding="utf-8"?>
<!-- Generator: Adobe Illustrator 28.0.0, SVG Export Plug-In . SVG Version: 6.00 Build 0)  -->
<svg version="1.1" id="Layer_1" xmlns="http://www.w3.org/2000/svg" xmlns:xlink="http://www.w3.org/1999/xlink" x="0px" y="0px"
	 viewBox="0 0 341.37 61.19" style="enable-background:new 0 0 341.37 61.19;" xml:space="preserve">
<style type="text/css">
	.st0{fill:#FFFFFF;}
	.st1{display:none;stroke:#FFFFFF;stroke-miterlimit:10;}
</style>
<g>
	<g>
		<g>
			<path class="st0" d="M88.99,50.18c-0.81-1.61-2.13-2.79-3.15-3.23v-0.07c2.79-1.25,5.28-4.25,5.28-7.56
				c0-6.68-5.72-9.76-11.88-9.76H64.2v5.87h14.82l0,0h0.22c3.45,0,5.28,1.39,5.28,4.03c0,2.05-1.61,3.89-5.5,3.96l0,0h-0.07h-0.08
				H64.2V49h12.1c3.59,0,5.36,1.1,6.68,3.52l4.25,8.22h7.34L88.99,50.18z"/>
			<path class="st0" d="M119.8,44.61L119.8,44.61c1.98-1.32,2.93-3.52,2.93-5.94c0-4.77-3.67-8.95-10.86-8.95h-15.7v5.87h15.33
				c3.52,0,4.62,1.25,4.62,3.23c0,1.76-0.81,3.37-4.62,3.37H96.17v5.43h15.99c4.03,0,5.28,1.61,5.28,3.74s-1.03,3.67-5.28,3.67
				H96.17v5.87h15.99c7.41,0,11.88-3.52,11.88-9.39C124.06,47.98,122.3,45.41,119.8,44.61"/>
			<path class="st0" d="M45.71,29.57L33.97,54.73l-2.93,5.94h6.24l3.52-7.41h15.04l3.45,7.41h6.08l-14.52-31.1
				C50.85,29.57,45.71,29.57,45.71,29.57z M53.85,48.2H42.78l0.37-0.51l5.14-11.3h0.07l5.14,11.3L53.85,48.2z"/>
			<g>
				<path class="st0" d="M29.86,55.61c-3.3,3.59-7.78,5.58-13.13,5.58C5.73,61.19,0,54.66,0,45.34S6.02,29.2,16.73,29.2
					c5.58,0,9.83,1.76,13.06,5.43l-4.47,4.47c-1.98-2.71-4.84-4.18-8.51-4.18c-7.12,0-10.12,4.4-10.12,10.34
					c0,5.72,2.79,9.98,10.05,9.98c3.74,0,6.68-1.47,8.73-4.11L29.86,55.61z"/>
				<path class="st0" d="M191.91,60.75h-5.5l-14.08-17.17l-2.35-3.67h-0.07v20.83h-6.53V29.57h5.5l14.23,17.17l2.2,3.52h0.07V29.57
					h6.53L191.91,60.75L191.91,60.75z"/>
				<path class="st0" d="M203.87,60.75h-6.53V29.57h6.53V60.75z"/>
				<path class="st0" d="M224.41,61.11c-10.49,0-16.07-6.53-16.07-15.77s5.5-16.14,16.07-16.14s16.07,6.9,16.07,16.14
					C240.47,54.66,234.75,61.11,224.41,61.11z M224.41,35c-6.6,0-9.39,4.33-9.39,10.34c0,5.8,2.79,9.98,9.39,9.98
					c6.68,0,9.39-4.11,9.39-9.98C233.8,39.47,231.16,35,224.41,35z"/>
				<path class="st0" d="M143.5,61.19c-10.49,0-16.07-6.53-16.07-15.77s5.5-16.14,16.07-16.14s16.07,6.9,16.07,16.14
					S153.84,61.19,143.5,61.19z M143.5,35.07c-6.6,0-9.39,4.33-9.39,10.34c0,5.8,2.79,9.98,9.39,9.98c6.68,0,9.39-4.11,9.39-9.98
					C152.89,39.55,150.17,35.07,143.5,35.07z"/>
			</g>
		</g>
	</g>
</g>
<g>
	<path class="st0" d="M16.44,18.79H0.01v-2.42L10.06,4.93l1.69-1.54l0,0H0.3V0.38h15.99V2.8L6.32,14.24l-1.69,1.54l0,0h11.74
		C16.44,15.78,16.44,18.79,16.44,18.79z"/>
	<path class="st0" d="M53.41,18.79h-4.18l-3.96-5.21l-1.03-1.69l0,0l-1.03,1.76l-3.96,5.21h-4.18l7.19-9.24l-7.19-9.24h4.18
		l4.03,5.28l0.95,1.54l0,0l0.95-1.54l4.03-5.28h4.18l-7.02,9.24L53.41,18.79z"/>
	<path class="st0" d="M70.14,3.31h-6.46v15.63h-3.3V3.31h-6.46V0.3h16.14L70.14,3.31L70.14,3.31z"/>
	<g>
		<path class="st0" d="M90.09,0.3l-6.97,15.04l-1.47-2.71c-0.51-0.95-1.25-1.69-1.98-1.98l0,0c1.69-0.73,3.3-2.49,3.3-4.55
			c0-3.81-3.23-5.72-6.75-5.72h-5.06v3.01h5.06c2.05,0,3.45,0.73,3.45,2.71c0,1.47-1.17,2.57-3.67,2.57h-4.77v3.01h3.15
			c2.2,0,3.45,0.73,4.25,2.27l2.49,4.91h3.96l2.05-4.47h9.02l2.05,4.47h3.67L93.21,0.37L90.09,0.3L90.09,0.3z M94.93,11.45h-6.68
			l0.22-0.29l3.01-6.75l0,0l3.15,6.75L94.93,11.45z"/>
		<path class="st0" d="M112.17,8.3c-0.44-0.07-2.57-0.66-3.01-0.73c-3.23-0.81-4.03-1.47-4.03-2.27c0-0.95,1.03-2.2,4.47-2.2
			c2.27,0,3.96,0.81,5.43,2.49l2.42-2.42c-2.05-2.05-4.69-3.15-7.78-3.15c-5.21,0-7.78,2.42-7.78,5.28c0,3.01,2.71,4.25,6.02,5.06
			c0.44,0.07,3.01,0.73,3.45,0.81c2.42,0.66,3.23,1.54,3.23,2.42c0,1.17-1.25,2.42-4.69,2.42c-2.2,0-3.96-0.66-6.16-2.57l-2.42,2.42
			c2.42,2.42,5.65,3.3,8.66,3.3c5.65,0,8-2.71,8-5.5C117.75,11.23,115.99,9.25,112.17,8.3z"/>
	</g>
	<g>
		<rect x="18.42" y="8" class="st0" width="13.94" height="3.01"/>
		<rect x="18.42" y="15.78" class="st0" width="15.04" height="3.01"/>
		<rect x="18.42" y="0.3" class="st0" width="15.04" height="3.01"/>
	</g>
	<g>
		<path class="st0" d="M118.63,2.06c-0.51,0-1.03-0.44-1.03-1.03c0-0.66,0.44-1.03,1.03-1.03c0.51,0,1.03,0.44,1.03,1.03
			C119.51,1.55,119.14,2.06,118.63,2.06z M118.63,0.23c-0.51,0-0.81,0.44-0.81,0.95s0.44,0.95,0.81,0.95s0.81-0.44,0.81-0.95
			C119.43,0.59,118.99,0.23,118.63,0.23z M119.14,1.69L119.14,1.69l-0.15-0.29c-0.07-0.07-0.07-0.22-0.29-0.22h-0.29l0,0v0.44h-0.07
			V0.45h0.51c0.22,0,0.44,0.07,0.44,0.29c0,0.07-0.07,0.22-0.22,0.29c0.07,0.07,0.07,0.07,0.07,0.22L119.14,1.69L119.14,1.69z
			 M118.63,0.59h-0.44l0,0v0.44l0,0h0.44c0.22,0,0.29-0.07,0.29-0.22C118.92,0.67,118.7,0.59,118.63,0.59z"/>
	</g>
</g>
<g>
	<path class="st0" d="M258.23,39.26c0.08,0,0.15,0.08,0.23,0.15l0.61,0.68c-0.45,0.53-1.06,0.99-1.82,1.29s-1.52,0.45-2.5,0.45
		c-0.83,0-1.59-0.15-2.35-0.45c-0.68-0.3-1.29-0.76-1.82-1.21c-0.53-0.53-0.91-1.21-1.14-1.9c-0.23-0.76-0.45-1.59-0.45-2.5
		s0.15-1.67,0.45-2.5c0.3-0.76,0.68-1.44,1.21-1.9c0.53-0.53,1.14-0.91,1.9-1.21c0.76-0.3,1.52-0.45,2.43-0.45s1.59,0.15,2.27,0.45
		c0.61,0.23,1.21,0.61,1.67,1.14l-0.53,0.76c-0.08,0.08-0.08,0.08-0.15,0.15c-0.08,0.08-0.15,0.08-0.23,0.08s-0.15-0.08-0.23-0.08
		c-0.08-0.08-0.15-0.15-0.3-0.23s-0.23-0.15-0.38-0.23s-0.3-0.15-0.53-0.23s-0.45-0.15-0.76-0.23c-0.23-0.08-0.61-0.08-0.91-0.08
		c-0.61,0-1.21,0.15-1.74,0.3c-0.53,0.23-0.99,0.53-1.36,0.91c-0.38,0.38-0.68,0.91-0.91,1.52c-0.23,0.61-0.3,1.21-0.3,1.97
		s0.08,1.44,0.3,1.97c0.23,0.61,0.53,1.06,0.83,1.52c0.38,0.38,0.83,0.76,1.29,0.91c0.53,0.23,1.06,0.3,1.59,0.3
		c0.3,0,0.68,0,0.91-0.08c0.3-0.08,0.53-0.08,0.76-0.23s0.45-0.23,0.68-0.3c0.23-0.15,0.45-0.3,0.61-0.45
		C258.08,39.33,258.16,39.26,258.23,39.26z"/>
	<path class="st0" d="M264.37,33.19c0.61,0,1.14,0.08,1.67,0.3c0.53,0.23,0.91,0.53,1.29,0.83c0.3,0.38,0.61,0.83,0.83,1.36
		c0.15,0.53,0.3,1.14,0.3,1.82s-0.08,1.29-0.3,1.82c-0.15,0.53-0.45,0.99-0.83,1.36c-0.3,0.38-0.76,0.68-1.29,0.83
		c-0.53,0.23-1.06,0.3-1.67,0.3c-0.61,0-1.14-0.08-1.67-0.3c-0.53-0.23-0.91-0.53-1.29-0.83s-0.61-0.83-0.83-1.36
		c-0.23-0.53-0.3-1.14-0.3-1.82s0.08-1.21,0.3-1.82c0.23-0.53,0.45-0.99,0.83-1.36c0.3-0.38,0.76-0.68,1.29-0.83
		C263.24,33.27,263.77,33.19,264.37,33.19z M264.37,40.7c0.83,0,1.44-0.3,1.9-0.83s0.61-1.29,0.61-2.35c0-0.99-0.23-1.82-0.61-2.35
		c-0.45-0.53-0.99-0.83-1.9-0.83c-0.45,0-0.76,0.08-1.14,0.23c-0.3,0.15-0.53,0.3-0.76,0.61c-0.23,0.23-0.38,0.61-0.45,0.99
		c-0.08,0.38-0.15,0.83-0.15,1.29s0.08,0.91,0.15,1.29c0.15,0.38,0.23,0.76,0.45,0.99s0.45,0.45,0.76,0.61
		C263.62,40.55,264,40.7,264.37,40.7z"/>
	<path class="st0" d="M270.21,41.68v-8.42h0.91c0.23,0,0.3,0.08,0.38,0.3l0.15,0.83c0.3-0.38,0.61-0.68,0.99-0.91
		s0.83-0.38,1.29-0.38c0.53,0,0.99,0.15,1.36,0.45c0.3,0.3,0.61,0.76,0.76,1.29c0.15-0.3,0.23-0.53,0.45-0.83
		c0.15-0.23,0.45-0.38,0.61-0.53c0.23-0.15,0.53-0.23,0.76-0.3c0.23-0.08,0.53-0.08,0.83-0.08c0.45,0,0.83,0.08,1.21,0.23
		c0.3,0.15,0.61,0.3,0.91,0.61c0.23,0.23,0.45,0.61,0.53,0.99c0.15,0.38,0.15,0.83,0.15,1.36v5.38h-1.52v-5.38
		c0-0.61-0.15-1.14-0.45-1.52c-0.3-0.38-0.76-0.53-1.21-0.53c-0.23,0-0.45,0.08-0.68,0.15c-0.23,0.08-0.45,0.23-0.61,0.38
		c-0.15,0.15-0.3,0.38-0.38,0.61c-0.08,0.23-0.15,0.53-0.15,0.91v5.31h-1.52v-5.38c0-0.68-0.15-1.21-0.45-1.52
		c-0.23-0.3-0.68-0.53-1.21-0.53c-0.38,0-0.76,0.08-0.99,0.3c-0.3,0.23-0.61,0.45-0.83,0.83v6.22h-1.29
		C270.21,41.53,270.21,41.68,270.21,41.68z"/>
	<path class="st0" d="M283.86,41.68v-8.42h0.91c0.23,0,0.3,0.08,0.38,0.3l0.15,0.83c0.3-0.38,0.61-0.68,0.99-0.91
		s0.83-0.38,1.29-0.38c0.53,0,0.99,0.15,1.36,0.45c0.3,0.3,0.61,0.76,0.76,1.29c0.15-0.3,0.23-0.53,0.45-0.83
		c0.15-0.23,0.45-0.38,0.61-0.53c0.23-0.15,0.53-0.23,0.76-0.3c0.23-0.08,0.53-0.08,0.83-0.08c0.45,0,0.83,0.08,1.21,0.23
		s0.61,0.3,0.91,0.61c0.23,0.23,0.45,0.61,0.53,0.99c0.15,0.38,0.15,0.83,0.15,1.36v5.38h-1.52v-5.38c0-0.61-0.15-1.14-0.45-1.52
		c-0.3-0.3-0.76-0.53-1.21-0.53c-0.23,0-0.45,0.08-0.68,0.15c-0.23,0.08-0.45,0.23-0.61,0.38c-0.15,0.15-0.3,0.38-0.38,0.61
		c-0.08,0.23-0.15,0.53-0.15,0.91v5.31h-1.52v-5.38c0-0.68-0.15-1.21-0.45-1.52c-0.23-0.3-0.68-0.53-1.21-0.53
		c-0.38,0-0.76,0.08-0.99,0.3c-0.23,0.23-0.61,0.45-0.83,0.83v6.22h-1.29L283.86,41.68L283.86,41.68z"/>
	<path class="st0" d="M298.72,33.34v5.38c0,0.61,0.15,1.14,0.45,1.52c0.3,0.3,0.76,0.53,1.29,0.53c0.45,0,0.83-0.08,1.21-0.3
		c0.38-0.23,0.76-0.53,1.06-0.83v-6.22h1.52v8.42h-0.91c-0.23,0-0.3-0.08-0.38-0.3l-0.15-0.91c-0.38,0.38-0.76,0.76-1.21,0.99
		S300.61,42,300.01,42c-0.45,0-0.83-0.08-1.21-0.23c-0.3-0.15-0.61-0.38-0.91-0.61c-0.23-0.3-0.45-0.61-0.53-0.99
		c-0.15-0.38-0.15-0.83-0.15-1.29V33.5L298.72,33.34L298.72,33.34z"/>
	<path class="st0" d="M306.68,41.68v-8.42h0.91c0.23,0,0.3,0.08,0.38,0.3l0.15,0.91c0.38-0.38,0.76-0.76,1.21-0.99
		s0.99-0.38,1.59-0.38c0.45,0,0.83,0.08,1.21,0.23c0.3,0.15,0.61,0.38,0.91,0.61c0.23,0.3,0.45,0.61,0.53,0.99
		c0.15,0.38,0.15,0.83,0.15,1.29v5.38h-1.52v-5.38c0-0.61-0.15-1.14-0.45-1.52c-0.3-0.3-0.76-0.53-1.29-0.53
		c-0.45,0-0.83,0.08-1.21,0.3s-0.76,0.53-1.06,0.83v6.22h-1.52v0.16H306.68z"/>
	<path class="st0" d="M317.91,30.69c0,0.15-0.08,0.3-0.08,0.38c-0.08,0.15-0.15,0.23-0.23,0.3c-0.08,0.08-0.23,0.15-0.3,0.23
		c-0.15,0.08-0.23,0.08-0.45,0.08c-0.15,0-0.3-0.08-0.38-0.08c-0.08-0.08-0.23-0.15-0.3-0.23c-0.08-0.08-0.15-0.23-0.23-0.3
		c-0.08-0.15-0.08-0.23-0.08-0.38s0.08-0.3,0.08-0.45s0.15-0.23,0.23-0.3c0.08-0.08,0.23-0.15,0.3-0.23
		c0.08-0.08,0.23-0.08,0.38-0.08s0.3,0.08,0.45,0.08c0.15,0.08,0.23,0.15,0.3,0.23c0.08,0.08,0.15,0.23,0.23,0.3
		C317.83,30.38,317.91,30.54,317.91,30.69z M317.6,33.34v8.42h-1.52v-8.42H317.6L317.6,33.34z"/>
	<path class="st0" d="M322.68,41.91c-0.68,0-1.21-0.15-1.52-0.53c-0.3-0.38-0.53-0.91-0.53-1.59v-5.16h-0.99
		c-0.08,0-0.15-0.08-0.23-0.08c-0.08-0.08-0.08-0.15-0.08-0.23v-0.68l1.36-0.15l0.3-2.58c0-0.08,0.08-0.15,0.15-0.23
		s0.15-0.08,0.23-0.08h0.76v2.88h2.43v1.06h-2.43v5.08c0,0.3,0.08,0.61,0.23,0.83c0.15,0.15,0.38,0.23,0.68,0.23
		c0.15,0,0.3,0,0.38-0.08c0.08-0.08,0.23-0.08,0.3-0.15c0.08-0.08,0.15-0.08,0.23-0.15c0.08-0.08,0.15-0.08,0.15-0.08
		c0.08,0,0.15,0.08,0.23,0.15l0.45,0.76c-0.23,0.23-0.53,0.45-0.91,0.53C323.44,41.83,323.06,41.91,322.68,41.91z"/>
	<path class="st0" d="M328.83,44.19c-0.08,0.15-0.15,0.23-0.15,0.23c-0.08,0.08-0.15,0.08-0.3,0.08h-1.14l1.52-3.34l-3.49-7.89h1.29
		c0.15,0,0.23,0.08,0.3,0.08c0.08,0.08,0.15,0.15,0.15,0.23l2.27,5.31c0.08,0.15,0.08,0.23,0.15,0.38c0.08,0.15,0.08,0.23,0.08,0.38
		c0.08-0.15,0.08-0.23,0.15-0.38c0.08-0.15,0.08-0.23,0.15-0.38l2.2-5.31c0.08-0.08,0.08-0.15,0.15-0.23
		c0.08-0.08,0.15-0.08,0.23-0.08h1.21L328.83,44.19z"/>
</g>
<g>
	<path class="st0" d="M258.35,48.7v1.29h-5.69v3.94h4.63v1.29h-4.63v4.02h5.69v1.29h-7.28V48.7H258.35L258.35,48.7z"/>
	<path class="st0" d="M266.38,60.53c-0.23,0-0.3-0.08-0.38-0.3l-0.15-0.99c-0.3,0.45-0.76,0.76-1.21,1.06
		c-0.45,0.23-0.99,0.38-1.59,0.38c-0.45,0-0.91-0.08-1.29-0.3c-0.38-0.15-0.76-0.45-0.99-0.83c-0.3-0.3-0.53-0.83-0.61-1.36
		c-0.15-0.53-0.23-1.14-0.23-1.82c0-0.61,0.08-1.21,0.23-1.74c0.15-0.53,0.45-0.99,0.76-1.44c0.3-0.38,0.68-0.68,1.14-0.91
		s0.91-0.3,1.52-0.3c0.53,0,0.91,0.08,1.29,0.23s0.68,0.45,0.99,0.76v-4.7h1.51v12.28L266.38,60.53L266.38,60.53z M263.5,59.46
		c0.45,0,0.91-0.15,1.29-0.3c0.38-0.23,0.68-0.53,0.99-0.91v-4.02c-0.23-0.38-0.53-0.61-0.91-0.76c-0.3-0.15-0.68-0.23-1.06-0.23
		c-0.76,0-1.44,0.3-1.82,0.83s-0.61,1.36-0.61,2.35c0,0.53,0.08,0.99,0.15,1.44c0.08,0.38,0.23,0.76,0.45,0.99
		c0.15,0.23,0.45,0.45,0.68,0.53C262.82,59.46,263.2,59.46,263.5,59.46z"/>
	<path class="st0" d="M271.69,49.53c0,0.15-0.08,0.3-0.08,0.38c-0.08,0.15-0.15,0.23-0.23,0.3c-0.08,0.08-0.23,0.15-0.3,0.23
		c-0.15,0.08-0.23,0.08-0.45,0.08c-0.15,0-0.3-0.08-0.38-0.08c-0.08-0.08-0.23-0.15-0.3-0.23c-0.08-0.08-0.15-0.23-0.23-0.3
		c-0.08-0.15-0.08-0.23-0.08-0.38c0-0.15,0.08-0.3,0.08-0.45s0.15-0.23,0.23-0.3c0.08-0.08,0.23-0.15,0.3-0.23
		c0.15-0.08,0.23-0.08,0.38-0.08s0.3,0.08,0.45,0.08c0.15,0.08,0.23,0.15,0.3,0.23c0.08,0.08,0.15,0.23,0.23,0.3
		C271.69,49.23,271.69,49.38,271.69,49.53z M271.39,52.19v8.42h-1.52v-8.42H271.39L271.39,52.19z"/>
	<path class="st0" d="M276.54,60.75c-0.68,0-1.21-0.15-1.52-0.53c-0.3-0.38-0.53-0.91-0.53-1.59v-5.16h-0.99
		c-0.08,0-0.15-0.08-0.23-0.08c-0.08-0.08-0.08-0.15-0.08-0.23v-0.68l1.36-0.15l0.3-2.58c0-0.08,0.08-0.15,0.15-0.23
		c0.08-0.08,0.15-0.08,0.23-0.08h0.76v2.88h2.43v1.06h-2.43v5.08c0,0.3,0.08,0.61,0.23,0.83c0.15,0.15,0.38,0.23,0.68,0.23
		c0.15,0,0.3,0,0.38-0.08c0.08-0.08,0.23-0.08,0.3-0.15c0.08-0.08,0.15-0.08,0.23-0.15c0.08-0.08,0.15-0.08,0.15-0.08
		c0.08,0,0.15,0.08,0.23,0.15l0.45,0.76c-0.23,0.23-0.53,0.45-0.91,0.53C277.23,60.68,276.92,60.75,276.54,60.75z"/>
	<path class="st0" d="M282.16,49.53c0,0.15-0.08,0.3-0.08,0.38c-0.08,0.15-0.15,0.23-0.23,0.3c-0.08,0.08-0.23,0.15-0.3,0.23
		c-0.15,0.08-0.23,0.08-0.45,0.08c-0.15,0-0.3-0.08-0.38-0.08c-0.08-0.08-0.23-0.15-0.3-0.23c-0.08-0.08-0.15-0.23-0.23-0.3
		c-0.08-0.15-0.08-0.23-0.08-0.38c0-0.15,0.08-0.3,0.08-0.45s0.15-0.23,0.23-0.3c0.08-0.08,0.23-0.15,0.3-0.23
		c0.08-0.08,0.23-0.08,0.38-0.08s0.3,0.08,0.45,0.08c0.15,0.08,0.23,0.15,0.3,0.23c0.08,0.08,0.15,0.23,0.23,0.3
		S282.16,49.38,282.16,49.53z M281.78,52.19v8.42h-1.52v-8.42H281.78L281.78,52.19z"/>
	<path class="st0" d="M287.77,52.03c0.61,0,1.14,0.08,1.67,0.3c0.53,0.23,0.91,0.53,1.29,0.83c0.3,0.38,0.61,0.83,0.83,1.36
		c0.15,0.53,0.3,1.14,0.3,1.82s-0.08,1.29-0.3,1.82c-0.15,0.53-0.45,0.99-0.83,1.36c-0.3,0.38-0.76,0.68-1.29,0.83
		c-0.53,0.23-1.06,0.3-1.67,0.3s-1.14-0.08-1.67-0.3c-0.53-0.23-0.91-0.53-1.29-0.83s-0.61-0.83-0.83-1.36s-0.3-1.14-0.3-1.82
		s0.08-1.21,0.3-1.82c0.23-0.53,0.45-0.99,0.83-1.36c0.3-0.38,0.76-0.68,1.29-0.83C286.63,52.11,287.24,52.03,287.77,52.03z
		 M287.77,59.54c0.83,0,1.44-0.3,1.9-0.83s0.61-1.29,0.61-2.35c0-0.99-0.23-1.82-0.61-2.35c-0.45-0.53-0.99-0.83-1.9-0.83
		c-0.45,0-0.76,0.08-1.14,0.23c-0.3,0.15-0.53,0.3-0.76,0.61c-0.23,0.23-0.38,0.61-0.45,0.99c-0.08,0.38-0.15,0.83-0.15,1.29
		s0.08,0.91,0.15,1.29c0.15,0.38,0.23,0.76,0.45,0.99c0.23,0.23,0.45,0.45,0.76,0.61C287.01,59.39,287.39,59.54,287.77,59.54z"/>
	<path class="st0" d="M293.6,60.53v-8.42h0.91c0.23,0,0.3,0.08,0.38,0.3l0.15,0.91c0.38-0.38,0.76-0.76,1.21-0.99
		s0.99-0.38,1.59-0.38c0.45,0,0.83,0.08,1.21,0.23c0.3,0.15,0.61,0.38,0.91,0.61c0.23,0.3,0.45,0.61,0.53,0.99
		c0.15,0.38,0.15,0.83,0.15,1.29v5.38h-1.52v-5.38c0-0.61-0.15-1.14-0.45-1.52c-0.3-0.3-0.76-0.53-1.29-0.53
		c-0.45,0-0.83,0.08-1.21,0.3s-0.76,0.53-1.06,0.83v6.22h-1.52L293.6,60.53L293.6,60.53z"/>
</g>
<rect x="70.87" y="-35.46" class="st1" width="190" height="144"/>
<rect x="0.87" y="-51.46" class="st1" width="330" height="192"/>
</svg>
