<?xml version="1.0" encoding="utf-8"?>
<!-- Generator: Adobe Illustrator 24.1.0, SVG Export Plug-In . SVG Version: 6.00 Build 0)  -->
<svg version="1.1" id="Livello_1" xmlns="http://www.w3.org/2000/svg" xmlns:xlink="http://www.w3.org/1999/xlink" x="0px" y="0px"
	 viewBox="0 0 151 24.4" style="enable-background:new 0 0 151 24.4;" xml:space="preserve">
<style type="text/css">
	.st0{fill:#FFFFFF;}
</style>
<g>
	<path class="st0" d="M21,24.1H0V21L12.9,6.3l2.1-2V4.2H0.3V0.3h20.6v3.1L8.1,18.1L6,20.2v0.1H21V24.1z"/>
	<path class="st0" d="M68.5,24.1h-5.4l-5.1-6.6l-1.4-2.3h-0.1l-1.4,2.3l-5.1,6.6h-5.3l9.2-11.9L44.9,0.3h5.4l5.2,6.8l1.2,2h0.1
		l1.2-2l5.2-6.8h5.3l-9.1,11.9L68.5,24.1z"/>
	<path class="st0" d="M90,4.2h-8.3l0,19.9h-4.3l0-19.9h-8.2V0.3H90V4.2z"/>
	<g>
		<path class="st0" d="M115.5,0.3l-9,19.3l-1.8-3.5c-0.6-1.2-1.7-2.2-2.5-2.5v-0.1c2.2-1,4.2-3.2,4.2-5.9c0-5-4.1-7.3-8.7-7.3h-6.5
			v3.9h6.5c2.7,0,4.4,1,4.4,3.4c0,1.9-1.5,3.4-4.7,3.4h-6.2v3.9h4.2c2.9,0,4.4,0.9,5.4,3l3.2,6.3h5l2.6-5.7h11.5l2.6,5.7h4.7
			L119.5,0.3H115.5z M121.8,14.6h-8.5l0.3-0.4l3.9-8.6h0.1l3.9,8.6L121.8,14.6z"/>
		<path class="st0" d="M143.9,10.6c-0.6-0.1-3.3-0.9-3.8-1c-4.1-1.1-5.2-1.9-5.2-3c0-1.2,1.4-2.8,5.7-2.8c2.9,0,5.1,1.1,6.9,3.2
			l3.1-3.1c-2.6-2.7-6-4-10-4c-6.7,0-10.1,3.1-10.1,6.8c0,3.9,3.5,5.4,7.8,6.6c0.5,0.1,3.9,1,4.4,1.1c3.1,0.8,4.1,2,4.1,3.1
			c0,1.5-1.6,3-6,3c-2.8,0-5-0.8-7.9-3.4l-3.1,3c3.1,3,7.1,4.2,11.1,4.2c7.3,0,10.2-3.4,10.2-7.1C151,14.3,148.8,11.8,143.9,10.6z"
			/>
	</g>
	<g>
		<rect x="23.5" y="10.3" class="st0" width="17.9" height="3.9"/>
		<rect x="23.5" y="20.3" class="st0" width="19.3" height="3.9"/>
		<rect x="23.5" y="0.3" class="st0" width="19.3" height="3.9"/>
	</g>
</g>
</svg>
