<?xml version="1.0" encoding="utf-8"?>
<!-- Generator: Adobe Illustrator 25.4.1, SVG Export Plug-In . SVG Version: 6.00 Build 0)  -->
<svg version="1.1" id="Layer_1" xmlns="http://www.w3.org/2000/svg" xmlns:xlink="http://www.w3.org/1999/xlink" x="0px" y="0px"
	 viewBox="0 0 998.5 154.9" style="enable-background:new 0 0 998.5 154.9;" xml:space="preserve">
<style type="text/css">
	.st0{display:none;fill:#FFFFFF;}
	.st1{fill:#FFFFFF;}
</style>
<g>
	<g>
		<path class="st0" d="M160.9,280.7h-29.2l60.8-126.4H216l60.7,126.4h-29l-43.2-93.8L160.9,280.7z"/>
		<g>
			<path class="st1" d="M372.2,98c-3.4-6.6-8.6-11.2-12.8-13.1v-0.3c11.2-5.1,21.5-17.3,21.5-30.7c0-27-23.2-39.5-48.4-39.5h-61.2
				v23.7h60.2v0h1c13.9,0,21.4,5.6,21.4,16.4c0,8.2-6.6,15.9-22.4,16.1v0h-0.2c-0.1,0-0.2,0-0.4,0l-59.6,0v22.6l49.1,0
				c14.7,0,21.8,4.4,27,14.2l17.3,33.4h29.8L372.2,98z"/>
			<path class="st1" d="M497.3,75.2V75c7.9-5.3,11.8-14,11.8-24c0-19.5-15-36.5-44.1-36.5h-63.7v23.7h62.2
				c14.2,0,18.7,5.1,18.7,13.1c0,7.2-3.4,13.6-18.7,13.6h-62.2V87h65c16.4,0,21.4,6.7,21.4,15.3c0,8.7-4.2,14.8-21.4,14.8l-65,0
				v23.7h65c30.2,0,48.3-14.3,48.3-38.2C514.6,88.9,507.5,78.7,497.3,75.2"/>
			<path class="st1" d="M196.3,14.3l-47.7,102.2l-11.8,24.1h25.3l14-30.1h61.2l14,30.1h24.8l-59-126.3H196.3z M229.4,89.9h-45l1.5-2
				L206.8,42h0.3l20.8,45.9L229.4,89.9z"/>
			<g>
				<path class="st1" d="M131.9,119.9c-13.5,14.6-31.6,22.7-53.4,22.7c-44.6,0-67.9-26.5-67.9-64.3c0-37.9,24.3-65.6,68.1-65.6
					c22.7,0,39.8,7.2,53.1,22.2l-18.3,18.3c-8.1-11.1-19.6-16.9-34.7-16.9c-28.8,0-41,17.8-41,42c0,23.3,11.4,40.5,40.9,40.5
					c15.2,0,27.1-5.9,35.4-16.7L131.9,119.9z"/>
				<path class="st1" d="M790.4,140.9H768l-57.1-69.8l-9.4-14.9h-0.3v84.7h-26.6V14.1H697l57.8,69.8l8.8,14.4h0.3V14.1h26.6V140.9z"
					/>
				<path class="st1" d="M838.8,140.9h-26.6V14.1h26.6V140.9z"/>
				<path class="st1" d="M922.4,142.4c-42.7,0-65.3-26.4-65.3-64.2c0-37.7,22.5-65.7,65.3-65.7c43,0,65.3,28,65.3,65.7
					C987.6,116,964.4,142.4,922.4,142.4z M922.4,36.3c-26.9,0-38.2,17.5-38.2,42c0,23.6,11.3,40.4,38.2,40.4
					c27.2,0,38.2-16.7,38.2-40.4C960.5,54.5,949.6,36.3,922.4,36.3z"/>
				<path class="st1" d="M593.4,142.6c-42.7,0-65.3-26.4-65.3-64.2c0-37.7,22.5-65.7,65.3-65.7c43,0,65.3,28,65.3,65.7
					C658.7,116.2,635.5,142.6,593.4,142.6z M593.4,36.5c-26.9,0-38.2,17.5-38.2,42c0,23.6,11.3,40.4,38.2,40.4
					c27.2,0,38.2-16.7,38.2-40.4C631.6,54.6,620.7,36.5,593.4,36.5z"/>
			</g>
		</g>
	</g>
</g>
</svg>
