<?xml version="1.0" encoding="utf-8"?>
<!-- Generator: Adobe Illustrator 25.4.1, SVG Export Plug-In . SVG Version: 6.00 Build 0)  -->
<svg version="1.1" id="Layer_1" xmlns="http://www.w3.org/2000/svg" xmlns:xlink="http://www.w3.org/1999/xlink" x="0px" y="0px"
	 viewBox="0 0 998.5 154.9" style="enable-background:new 0 0 998.5 154.9;" xml:space="preserve">
<style type="text/css">
	.st0{fill:#182126;}
</style>
<g>
	<path class="st0" d="M263,139.8c-22.3,0-43.8-7-59.6-22.1l18.3-18.3c12.9,11.6,27.7,17,42.3,17c20.6,0,28-6.5,28-13.5
		c0-4-3.6-10.2-20-14.2c-2.8-0.6-20.3-5-23.2-5.7c-22.3-5.7-42.3-14.1-42.3-35.3c0-20,19-36.4,55-36.4c22.5,0,41,7.6,54.7,21.5
		l-18.4,18.3c-8.7-9.9-22-16.4-36.5-16.4c-20.4,0-27.9,6.5-27.9,12.4c0,5.3,5.7,8.5,26,13.6c2.8,0.8,17.3,4.5,20.3,5.1
		c26.2,6.3,39.2,20,39.2,36.7C318.7,121.8,301.7,139.8,263,139.8z"/>
	<path class="st0" d="M462,80.5c0,37.5-18.9,59.3-58.8,59.3c-40.1,0-59.1-21.5-59.1-59.3V12.8h26.3v67.5c0,23.7,8.7,35.9,32.7,35.9
		c23.7,0,32.7-12.2,32.7-35.9V12.8H462V80.5z"/>
	<path class="st0" d="M520.5,138.2h-26.3V12.8h26.3V138.2z"/>
	<path class="st0" d="M655.7,36.4H611l1.4,2.5v99.4h-26.3V38.8l1.4-2.5h-44.7V12.8h113v23.6H655.7z"/>
	<g>
		<rect x="676.9" y="63.7" class="st0" width="95.2" height="23"/>
		<rect x="677.2" y="115.4" class="st0" width="102.2" height="23"/>
		<rect x="677.2" y="12.8" class="st0" width="102.2" height="23.4"/>
	</g>
</g>
</svg>
