<?xml version="1.0" encoding="utf-8"?>
<!-- Generator: Adobe Illustrator 28.0.0, SVG Export Plug-In . SVG Version: 6.00 Build 0)  -->
<svg version="1.1" id="Layer_1" xmlns="http://www.w3.org/2000/svg" xmlns:xlink="http://www.w3.org/1999/xlink" x="0px" y="0px"
	 viewBox="0 0 341.37 61.19" style="enable-background:new 0 0 341.37 61.19;" xml:space="preserve">
<style type="text/css">
	.st0{display:none;stroke:#FFFFFF;stroke-miterlimit:10;}
</style>
<g>
	<g>
		<g>
			<path d="M88.99,50.18c-0.81-1.61-2.13-2.79-3.15-3.23v-0.07c2.79-1.25,5.28-4.25,5.28-7.56c0-6.68-5.72-9.76-11.88-9.76H64.2
				v5.87h14.82l0,0h0.22c3.45,0,5.28,1.39,5.28,4.03c0,2.05-1.61,3.89-5.5,3.96l0,0h-0.07h-0.08H64.2V49h12.1
				c3.59,0,5.36,1.1,6.68,3.52l4.25,8.22h7.34L88.99,50.18z"/>
			<path d="M119.8,44.61L119.8,44.61c1.98-1.32,2.93-3.52,2.93-5.94c0-4.77-3.67-8.95-10.86-8.95h-15.7v5.87h15.33
				c3.52,0,4.62,1.25,4.62,3.23c0,1.76-0.81,3.37-4.62,3.37H96.17v5.43h15.99c4.03,0,5.28,1.61,5.28,3.74s-1.03,3.67-5.28,3.67
				H96.17v5.87h15.99c7.41,0,11.88-3.52,11.88-9.39C124.06,47.98,122.3,45.41,119.8,44.61"/>
			<path d="M45.71,29.57L33.97,54.73l-2.93,5.94h6.24l3.52-7.41h15.04l3.45,7.41h6.08l-14.52-31.1
				C50.85,29.57,45.71,29.57,45.71,29.57z M53.85,48.2H42.78l0.37-0.51l5.14-11.3h0.07l5.14,11.3L53.85,48.2z"/>
			<g>
				<path d="M29.86,55.61c-3.3,3.59-7.78,5.58-13.13,5.58C5.73,61.19,0,54.66,0,45.34S6.02,29.2,16.73,29.2
					c5.58,0,9.83,1.76,13.06,5.43l-4.47,4.47c-1.98-2.71-4.84-4.18-8.51-4.18c-7.12,0-10.12,4.4-10.12,10.34
					c0,5.72,2.79,9.98,10.05,9.98c3.74,0,6.68-1.47,8.73-4.11L29.86,55.61z"/>
				<path d="M191.91,60.75h-5.5l-14.08-17.17l-2.35-3.67h-0.07v20.83h-6.53V29.57h5.5l14.23,17.17l2.2,3.52h0.07V29.57h6.53
					L191.91,60.75L191.91,60.75z"/>
				<path d="M203.87,60.75h-6.53V29.57h6.53V60.75z"/>
				<path d="M224.41,61.11c-10.49,0-16.07-6.53-16.07-15.77s5.5-16.14,16.07-16.14s16.07,6.9,16.07,16.14
					C240.47,54.66,234.75,61.11,224.41,61.11z M224.41,35c-6.6,0-9.39,4.33-9.39,10.34c0,5.8,2.79,9.98,9.39,9.98
					c6.68,0,9.39-4.11,9.39-9.98C233.8,39.47,231.16,35,224.41,35z"/>
				<path d="M143.5,61.19c-10.49,0-16.07-6.53-16.07-15.77s5.5-16.14,16.07-16.14s16.07,6.9,16.07,16.14S153.84,61.19,143.5,61.19z
					 M143.5,35.07c-6.6,0-9.39,4.33-9.39,10.34c0,5.8,2.79,9.98,9.39,9.98c6.68,0,9.39-4.11,9.39-9.98
					C152.89,39.55,150.17,35.07,143.5,35.07z"/>
			</g>
		</g>
	</g>
</g>
<g>
	<path d="M16.44,18.79H0.01v-2.42L10.06,4.93l1.69-1.54l0,0H0.3V0.38h15.99V2.8L6.32,14.24l-1.69,1.54l0,0h11.74
		C16.44,15.78,16.44,18.79,16.44,18.79z"/>
	<path d="M53.41,18.79h-4.18l-3.96-5.21l-1.03-1.69l0,0l-1.03,1.76l-3.96,5.21h-4.18l7.19-9.24l-7.19-9.24h4.18l4.03,5.28l0.95,1.54
		l0,0l0.95-1.54l4.03-5.28h4.18l-7.02,9.24L53.41,18.79z"/>
	<path d="M70.14,3.31h-6.46v15.63h-3.3V3.31h-6.46V0.3h16.14L70.14,3.31L70.14,3.31z"/>
	<g>
		<path d="M90.09,0.3l-6.97,15.04l-1.47-2.71c-0.51-0.95-1.25-1.69-1.98-1.98l0,0c1.69-0.73,3.3-2.49,3.3-4.55
			c0-3.81-3.23-5.72-6.75-5.72h-5.06v3.01h5.06c2.05,0,3.45,0.73,3.45,2.71c0,1.47-1.17,2.57-3.67,2.57h-4.77v3.01h3.15
			c2.2,0,3.45,0.73,4.25,2.27l2.49,4.91h3.96l2.05-4.47h9.02l2.05,4.47h3.67L93.21,0.37L90.09,0.3L90.09,0.3z M94.93,11.45h-6.68
			l0.22-0.29l3.01-6.75l0,0l3.15,6.75L94.93,11.45z"/>
		<path d="M112.17,8.3c-0.44-0.07-2.57-0.66-3.01-0.73c-3.23-0.81-4.03-1.47-4.03-2.27c0-0.95,1.03-2.2,4.47-2.2
			c2.27,0,3.96,0.81,5.43,2.49l2.42-2.42c-2.05-2.05-4.69-3.15-7.78-3.15c-5.21,0-7.78,2.42-7.78,5.28c0,3.01,2.71,4.25,6.02,5.06
			c0.44,0.07,3.01,0.73,3.45,0.81c2.42,0.66,3.23,1.54,3.23,2.42c0,1.17-1.25,2.42-4.69,2.42c-2.2,0-3.96-0.66-6.16-2.57l-2.42,2.42
			c2.42,2.42,5.65,3.3,8.66,3.3c5.65,0,8-2.71,8-5.5C117.75,11.23,115.99,9.25,112.17,8.3z"/>
	</g>
	<g>
		<rect x="18.42" y="8" width="13.94" height="3.01"/>
		<rect x="18.42" y="15.78" width="15.04" height="3.01"/>
		<rect x="18.42" y="0.3" width="15.04" height="3.01"/>
	</g>
	<g>
		<path d="M118.63,2.06c-0.51,0-1.03-0.44-1.03-1.03c0-0.66,0.44-1.03,1.03-1.03c0.51,0,1.03,0.44,1.03,1.03
			C119.51,1.55,119.14,2.06,118.63,2.06z M118.63,0.23c-0.51,0-0.81,0.44-0.81,0.95s0.44,0.95,0.81,0.95s0.81-0.44,0.81-0.95
			C119.43,0.59,118.99,0.23,118.63,0.23z M119.14,1.69L119.14,1.69l-0.15-0.29c-0.07-0.07-0.07-0.22-0.29-0.22h-0.29l0,0v0.44h-0.07
			V0.45h0.51c0.22,0,0.44,0.07,0.44,0.29c0,0.07-0.07,0.22-0.22,0.29c0.07,0.07,0.07,0.07,0.07,0.22L119.14,1.69L119.14,1.69z
			 M118.63,0.59h-0.44l0,0v0.44l0,0h0.44c0.22,0,0.29-0.07,0.29-0.22C118.92,0.67,118.7,0.59,118.63,0.59z"/>
	</g>
</g>
<rect x="70.87" y="-35.46" class="st0" width="190" height="144"/>
<rect x="0.87" y="-51.46" class="st0" width="330" height="192"/>
</svg>
